<?xml version="1.0" encoding="utf-8"?>
<!-- Generator: Adobe Illustrator 17.0.0, SVG Export Plug-In . SVG Version: 6.00 Build 0)  -->
<!DOCTYPE svg PUBLIC "-//W3C//DTD SVG 1.1//EN" "http://www.w3.org/Graphics/SVG/1.1/DTD/svg11.dtd">
<svg version="1.1" id="Capa_1" xmlns="http://www.w3.org/2000/svg" xmlns:xlink="http://www.w3.org/1999/xlink" x="0px" y="0px"
	 width="1240px" height="1240px" viewBox="0 0 1240 1240" enable-background="new 0 0 1240 1240" xml:space="preserve">
<g>
	<path fill="#FF0000" d="M597.491,85.705c18.699,0,37.397,0,56.096,0c3.364,0.647,6.705,1.458,10.094,1.914
		c22.946,3.086,46.186,4.707,68.811,9.341c286.564,58.698,471.655,339.805,412.862,626.435
		c-66.017,321.846-408.792,508.954-713.584,386.295c-182.266-73.351-291.322-210.502-328.834-403.698
		c-3.93-20.238-5.543-40.926-8.231-61.406c0-18.699,0-37.397,0-56.096c0.662-3.664,1.682-7.304,1.933-10.996
		c4.056-59.546,17.11-117.137,42.054-171.275C220.15,229.43,356.909,124.061,549.274,91.793
		C565.238,89.116,581.414,87.705,597.491,85.705z M738.652,812.289c-5.498-45.405-10.786-87.734-15.715-130.105
		c-7.045-60.56-13.866-121.147-20.711-181.73c-6.462-57.194-12.774-114.405-19.271-171.595c-2.534-22.306-4.987-44.635-8.283-66.834
		c-1.594-10.734-11.066-17.54-22.104-17.922c-9.645-0.334-20.595,6.769-23.5,15.804c-3.256,10.128-6.315,20.338-8.963,30.64
		c-8.897,34.615-17.315,69.355-26.4,103.92c-10.92,41.548-22.621,82.892-33.449,124.464c-8.925,34.266-17.367,68.667-25.362,103.161
		c-2.153,9.287-5.859,12.664-15.755,12.439c-30.429-0.692-60.891-0.549-91.327,0.018c-7.809,0.146-11.966-1.972-14.529-9.335
		c-6.215-17.861-19.29-30.812-35.264-38.982c-35.126-17.966-84.582-12.19-108.498,29.306
		c-24.839,43.097-12.03,94.426,33.735,116.689c43.457,21.14,90.953,3.07,110.665-41.503c2.989-6.759,6.056-8.4,12.739-8.359
		c40.512,0.247,81.026,0.165,121.539,0.037c13.093-0.041,22.92-6.471,25.966-16.601c3.657-12.16,7.507-24.278,10.657-36.572
		c7.593-29.626,14.725-59.369,22.234-89.017c7.778-30.711,15.855-61.346,23.655-92.052c3.615-14.232,6.88-28.552,10.304-42.832
		c4.279,16.117,6.197,32.068,7.823,48.048c3.036,29.839,5.579,59.731,8.939,89.532c2.816,24.979,6.772,49.827,9.747,74.79
		c5.54,46.482,10.844,92.992,16.039,139.514c4.56,40.832,8.751,81.706,13.264,122.543c3.439,31.123,6.888,62.248,10.822,93.31
		c1.505,11.878,11.155,19.623,23.034,20.077c10.672,0.409,22.457-7.645,24.604-17.188c4.377-19.456,8.668-38.934,12.767-58.45
		c6.289-29.943,12.468-59.91,18.545-89.897c7.104-35.048,14.083-70.122,21.051-105.198c4.392-22.112,8.664-44.248,12.989-66.374
		c3.919,5.732,5.623,11.801,7.052,17.934c1.483,6.364,1.564,13.325,4.271,19.079c5.666,12.046,17.165,13.812,29.074,13.812
		c35.964,0.001,71.928,0.024,107.892,0.009c25.671-0.011,27.987-2.322,27.929-27.605c-0.042-18.209-2.576-20.668-21.266-20.672
		c-31.164-0.005-62.329-0.13-93.492,0.088c-5.236,0.037-8.529-1.109-9.589-6.619c-3.566-18.523-7.442-36.988-10.831-55.542
		c-4.456-24.39-8.392-48.875-12.889-73.257c-2.573-13.949-14.081-24.338-25.96-24.269c-11.929,0.07-21.101,8.416-24.208,22.997
		c-7.449,34.96-14.68,69.968-21.839,104.989c-8.059,39.421-15.871,78.892-23.933,118.312
		C748.457,766.786,743.765,788.218,738.652,812.289z"/>
	<path fill="#FFFFFF" d="M94.705,644.587c2.688,20.479,4.301,41.167,8.231,61.406c37.512,193.195,146.568,330.347,328.834,403.698
		c304.792,122.66,647.567-64.449,713.584-386.295c58.794-286.631-126.298-567.738-412.862-626.435
		c-22.625-4.634-45.865-6.256-68.811-9.341c-3.389-0.456-6.731-1.267-10.094-1.914c168.98,0,337.961,0,506.941,0
		c0,355.274,0,710.548,0,1065.823c-355.274,0-710.548,0-1065.823,0C94.705,982.548,94.705,813.567,94.705,644.587z"/>
	<path fill="#FFFFFF" d="M597.491,85.705c-16.077,2-32.253,3.411-48.216,6.089C356.909,124.061,220.15,229.43,138.692,406.22
		c-24.945,54.138-37.998,111.729-42.054,171.275c-0.251,3.692-1.271,7.332-1.933,10.996c0-167.595,0-335.191,0-502.786
		C262.3,85.705,429.895,85.705,597.491,85.705z"/>
	<path fill="#FFFFFF" d="M738.652,812.289c5.113-24.071,9.805-45.503,14.2-66.996c8.062-39.42,15.874-78.891,23.933-118.312
		c7.16-35.021,14.39-70.029,21.839-104.989c3.107-14.582,12.279-22.927,24.208-22.997c11.879-0.07,23.387,10.319,25.96,24.269
		c4.497,24.382,8.433,48.867,12.889,73.257c3.39,18.554,7.265,37.019,10.831,55.542c1.061,5.51,4.354,6.655,9.589,6.619
		c31.163-0.218,62.328-0.093,93.492-0.088c18.69,0.003,21.224,2.463,21.266,20.672c0.058,25.282-2.258,27.594-27.929,27.605
		c-35.964,0.015-71.928-0.008-107.892-0.009c-11.909,0-23.407-1.766-29.074-13.812c-2.706-5.754-2.788-12.714-4.271-19.079
		c-1.429-6.133-3.133-12.201-7.052-17.934c-4.326,22.125-8.597,44.262-12.989,66.374c-6.967,35.076-13.947,70.15-21.051,105.198
		c-6.078,29.987-12.256,59.954-18.545,89.897c-4.099,19.516-8.39,38.994-12.767,58.45c-2.147,9.543-13.931,17.597-24.604,17.188
		c-11.879-0.455-21.529-8.2-23.034-20.077c-3.934-31.062-7.383-62.187-10.822-93.31c-4.512-40.838-8.704-81.711-13.264-122.543
		c-5.195-46.522-10.499-93.033-16.039-139.514c-2.975-24.963-6.931-49.811-9.747-74.79c-3.36-29.801-5.903-59.693-8.939-89.532
		c-1.626-15.981-3.544-31.931-7.823-48.048c-3.424,14.28-6.69,28.6-10.304,42.832c-7.799,30.706-15.876,61.341-23.655,92.052
		c-7.509,29.648-14.641,59.391-22.234,89.017c-3.151,12.294-7.001,24.412-10.657,36.572c-3.046,10.13-12.873,16.559-25.966,16.601
		c-40.513,0.128-81.027,0.21-121.539-0.037c-6.684-0.041-9.75,1.6-12.739,8.359c-19.712,44.573-67.209,62.643-110.665,41.503
		c-45.765-22.263-58.574-73.592-33.735-116.689c23.916-41.495,73.372-47.272,108.498-29.306
		c15.974,8.17,29.049,21.121,35.264,38.982c2.562,7.363,6.72,9.481,14.529,9.335c30.435-0.567,60.897-0.71,91.327-0.018
		c9.896,0.225,13.602-3.152,15.755-12.439c7.995-34.494,16.437-68.895,25.362-103.161c10.828-41.572,22.528-82.916,33.449-124.464
		c9.085-34.565,17.503-69.305,26.4-103.92c2.648-10.302,5.707-20.512,8.963-30.64c2.904-9.035,13.855-16.138,23.5-15.804
		c11.038,0.382,20.511,7.188,22.104,17.922c3.296,22.199,5.748,44.528,8.283,66.834c6.497,57.19,12.809,114.401,19.271,171.595
		c6.845,60.583,13.666,121.17,20.711,181.73C727.866,724.555,733.154,766.884,738.652,812.289z M338.974,625.051
		c-17.237-0.189-31.581,14.643-32.177,32.307c-0.766,22.704,14.614,32.379,32.336,34.025c16.452,1.529,32.672-15.475,33.008-31.967
		C372.5,641.841,356.48,625.242,338.974,625.051z"/>
	<path fill="#FF0000" d="M338.974,625.051c17.506,0.191,33.526,16.79,33.167,34.365c-0.336,16.492-16.556,33.496-33.008,31.967
		c-17.723-1.646-33.103-11.321-32.336-34.025C307.393,639.693,321.737,624.862,338.974,625.051z"/>
</g>
</svg>
